HIERARCHY
ROOT HipCenter
{
    OFFSET 0.0 0.0 -0.0
    CHANNELS 6 Xposition Yposition Zposition Zrotation Xrotation Yrotation
    JOINT Spine
    {
        OFFSET 0.0 0.10539129376411438 0.0
        CHANNELS 3 Zrotation Xrotation Yrotation
        JOINT ShoulderCenter
        {
            OFFSET 0.0 0.31030890345573425 0.0
            CHANNELS 3 Zrotation Xrotation Yrotation
            JOINT LeftShoulder
            {
                OFFSET 0.19471313059329987 0.0 0.0
                CHANNELS 3 Zrotation Xrotation Yrotation
                JOINT LeftElbow
                {
                    OFFSET 0.2616344094276428 0.0 0.0
                    CHANNELS 3 Zrotation Xrotation Yrotation
                    JOINT LeftWrist
                    {
                        OFFSET 0.30867743492126465 0.0 0.0
                        CHANNELS 3 Zrotation Xrotation Yrotation
                        JOINT LeftHand
                        {
                            OFFSET 0.031324855983257294 0.0 0.0
                            CHANNELS 3 Zrotation Xrotation Yrotation
                            End Site
                            {
                                OFFSET 0.012529943138360977 0.0 0.0
                            }
                        }
                    }
                }
            }
            JOINT RightShoulder
            {
                OFFSET -0.19471313059329987 0.0 0.0
                CHANNELS 3 Zrotation Xrotation Yrotation
                JOINT RightElbow
                {
                    OFFSET -0.2616344094276428 0.0 0.0
                    CHANNELS 3 Zrotation Xrotation Yrotation
                    JOINT RightWrist
                    {
                        OFFSET -0.30867743492126465 0.0 0.0
                        CHANNELS 3 Zrotation Xrotation Yrotation
                        JOINT RightHand
                        {
                            OFFSET -0.031324855983257294 0.0 0.0
                            CHANNELS 3 Zrotation Xrotation Yrotation
                            End Site
                            {
                                OFFSET -0.012529943138360977 0.0 0.0
                            }
                        }
                    }
                }
            }
            End Site
            {
                OFFSET 0.0 0.12412355840206146 0.0
            }
        }
    }
    JOINT LeftHip
    {
        OFFSET 0.14161141216754913 0.0 0.0
        CHANNELS 3 Zrotation Xrotation Yrotation
        JOINT LeftKnee
        {
            OFFSET 0.0 -0.4167487919330597 0.0
            CHANNELS 3 Zrotation Xrotation Yrotation
            JOINT LeftAnkle
            {
                OFFSET 0.0 -0.436779260635376 0.0
                CHANNELS 3 Zrotation Xrotation Yrotation
                JOINT LeftFoot
                {
                    OFFSET 0.0 -0.11314952373504639 0.0
                    CHANNELS 3 Zrotation Xrotation Yrotation
                    End Site
                    {
                        OFFSET 0.0 0.0 0.045259807258844376
                    }
                }
            }
        }
    }
    JOINT RightHip
    {
        OFFSET -0.14161141216754913 0.0 0.0
        CHANNELS 3 Zrotation Xrotation Yrotation
        JOINT RightKnee
        {
            OFFSET 0.0 -0.4167487919330597 0.0
            CHANNELS 3 Zrotation Xrotation Yrotation
            JOINT RightAnkle
            {
                OFFSET 0.0 -0.436779260635376 0.0
                CHANNELS 3 Zrotation Xrotation Yrotation
                JOINT RightFoot
                {
                    OFFSET 0.0 -0.11314952373504639 0.0
                    CHANNELS 3 Zrotation Xrotation Yrotation
                    End Site
                    {
                        OFFSET 0.0 0.0 0.045259807258844376
                    }
                }
            }
        }
    }
}
MOTION
Frames: 5
Frame Time: 0.03333333333333333
-0.03200000151991844 0.054999999701976776 0.33500000834465027 -6.581946047182735 3.28014107286111 -0.8630812464181675 -1.6881207663583064 -4.966040292519442 -0.3249598818172918 -6.647413055397402e-07 -1.1201541245882691e-07 0.4496672945770945 133.07921970644864 0.7747201593946696 -123.5691533095546 4.81719899671751e-07 3.568563886430995e-06 139.3491568356425 -3.0386673805390662e-06 -10.050008151872762 57.12972905081881 0.0 0.0 0.0 -101.58978338631384 19.695419040974333 -152.63142609193721 -2.4779939940407277e-06 5.465040625481106e-07 -45.25123112649456 -179.99999328350836 -49.502590236721815 136.0007188975587 8.827812596100317e-32 6.361109362927035e-15 -1.5902773407317588e-15 11.070386557791815 -7.357025904594119 -21.08137333120377 -6.419625527418093 23.517463459805132 -25.847480807728438 92.89528020362206 -35.48139947415176 152.36420001532454 0.0 0.0 -1.5902773407317582e-15 -17.758314587434118 -1.7478047911184988 41.077656155588244 -0.12513957639710857 0.010046494327368365 0.0213305634381009 -63.64772564437599 -45.05414932484985 -138.2699470331678 -1.5902773407317588e-15 -7.95138670365879e-15 -6.361109362927033e-15
-0.03200000151991844 0.054999999701976776 0.3370000123977661 -7.12501796339358 3.276414494461117 -0.8395584453385567 -0.40289717501064676 -5.501549234219132 -0.28592168508806265 6.628432164570732e-08 9.129393782082585e-08 0.16042289440441176 133.12377372678705 1.4837692354872616 -122.77187920480733 2.094228157658821e-06 -4.029411750170969e-06 138.98090255471655 3.0780143254366365e-07 -8.855950887508648 56.42177768673005 0.0 0.0 0.0 -101.49771367447097 19.753632952589705 -153.06878121369962 -2.25141881071691e-06 2.6810062344846686e-06 -45.17911071124397 -179.99999651903175 -50.334127299736934 135.09142342090158 0.0 3.975693351829396e-16 0.0 11.74875706948832 -7.201429735778416 -21.338457057159154 -6.736780512969735 23.256324106263207 -25.41877358646402 92.91833369055853 -35.582672470507504 152.25183448243473 -2.2069531490250793e-31 7.951386703658792e-15 3.1805546814635168e-15 -17.160077053994048 -1.878776897475699 41.35843350030241 0.10180040345123162 0.17255579888225503 0.36658160401598106 -64.10991850665701 -44.51177405204763 -139.01752687172913 -1.5902773407317582e-15 6.361109362927032e-15 3.180554681463516e-15
-0.03099999949336052 0.05400000140070915 0.33899998664855957 -6.5198027415702615 3.2493890029874084 -0.8676668251190796 -0.6288495834369446 -6.2190272372957045 -0.28476135117259993 5.898810486169945e-07 -6.902859551040856e-09 0.0064364335812737965 133.69214240593718 1.926351104781721 -122.28637744512916 -2.3411540025677682e-06 -4.431546344267651e-06 138.85637047770524 6.086886245143636e-07 -10.469567198421199 57.67758258141722 6.361109362927033e-15 3.1805546814635164e-15 -1.7655625192200634e-31 -101.20426771522095 20.32677886974922 -152.96166783903035 -1.2480433002021282e-06 -4.63632165646083e-06 -45.51149906438587 179.99999489290082 -45.50326046414445 136.83806743920846 -6.3611093629270335e-15 0.0 0.0 11.000112125484854 -7.051104593515419 -21.503603451722338 -6.667549978686723 23.280514557532307 -25.156141937164907 93.07419723161792 -35.6791917151458 152.06723880584104 0.0 0.0 0.0 -17.7646663960975 -1.8596846071207045 40.51526364931645 0.014253477991328417 0.07515470263178735 0.1570458280889668 -63.68358245302187 -45.47016817692972 -137.73436951874126 -1.590277340731758e-15 -1.5448672043175555e-31 1.1131941385122306e-14
-0.03099999949336052 0.05400000140070915 0.3400000035762787 -6.581944588103354 3.8253343585116677 -0.5016601870637369 -0.20374701258463487 -7.516209234721712 -0.33396497881780907 -5.372091634167613e-07 -3.556099388703698e-07 -0.6163209034818591 134.28584734355596 2.353368875535103 -122.27981440779118 1.781510511840224e-06 -2.3306810300998283e-06 138.93126463898275 -1.484617633354698e-06 -10.269580970307436 56.013671530715996 -3.1805546814635168e-15 6.3611093629270335e-15 1.7655625192200634e-31 -100.85037819880445 20.16795139847417 -153.02573782342506 2.4335529144970923e-06 1.352505195747821e-06 -45.8552332109328 -179.99999908232675 -46.11869859777779 135.75847907862436 -6.3611093629270335e-15 8.827812596100317e-32 -1.5902773407317584e-15 11.176713796387883 -7.681170402643196 -21.815726421630792 -7.0156898204294915 23.279082263973525 -24.98266901470674 93.24647337567247 -35.69627112292079 152.04811604755218 0.0 0.0 0.0 -17.71627654516604 -2.4333954278642116 41.33838091877936 0.019923314521157816 0.07913831670820834 0.16752772549028605 -63.94101895524779 -44.622422823871034 -138.71131905808343 1.5902773407317584e-15 -6.3611093629270335e-15 8.827812596100317e-32
-0.03099999949336052 0.05400000140070915 0.34200000762939453 -6.581944669423061 3.280140659594838 -0.5188765087771116 0.3324489714064483 -7.535980527442477 -0.26692690130377406 -5.41025227100794e-07 4.2015663315122216e-08 -0.7874391249222646 134.51963479913528 2.553571054666407 -121.98834907046468 -2.2738696849919443e-06 -3.734824674078476e-06 138.9314619790613 -1.609776475139595e-06 -11.299543110699569 57.46565754064694 -3.1805546814635168e-15 1.7655625192200634e-31 -6.3611093629270335e-15 -100.56434864645472 20.788825148362864 -153.3277954073415 3.756587362962205e-06 -2.4353548923467853e-06 -45.90046039700191 -179.9999970983839 -48.491410797807966 136.90267779044166 0.0 -3.1805546814635164e-15 0.0 11.018260665377307 -7.0081662686342465 -21.746949641533774 -6.75598208051199 23.227937274566496 -24.774763261331575 93.05808194920903 -36.06922618142008 151.54740569363975 3.1805546814635176e-15 6.361109362927035e-15 1.5902773407317584e-15 -17.590980414294304 -2.05545719112262 41.136163210923904 -0.07046969763392949 0.1653457526846806 0.3514113521643057 -63.722671857500195 -45.23202263558261 -138.27474867832075 -3.1805546814635168e-15 -7.951386703658792e-16 -2.2069531490250793e-32
